<?xml version="1.0" encoding="UTF-8" standalone="no"?>
<!DOCTYPE svg PUBLIC "-//W3C//DTD SVG 1.1//EN"
 "http://www.w3.org/Graphics/SVG/1.1/DTD/svg11.dtd">
<!-- Generated by graphviz version 2.43.0 (0)
 -->
<!-- Title: eth_ipv4_tcp Pages: 1 -->
<svg width="601pt" height="426pt"
 viewBox="0.00 0.00 601.00 425.59" xmlns="http://www.w3.org/2000/svg" xmlns:xlink="http://www.w3.org/1999/xlink">
<g id="graph0" class="graph" transform="scale(1 1) rotate(0) translate(4 421.59)">
<title>eth_ipv4_tcp</title>
<polygon fill="white" stroke="transparent" points="-4,4 -4,-421.59 597,-421.59 597,4 -4,4"/>
<!-- parse_ethernet -->
<g id="node1" class="node">
<title>parse_ethernet</title>
<polygon fill="none" stroke="black" points="356,-417.59 228,-417.59 228,-379.59 356,-379.59 356,-417.59"/>
<text text-anchor="middle" x="292" y="-402.39" font-family="Helvetica,sans-Serif" font-size="14.00">parse_ethernet</text>
<text text-anchor="middle" x="292" y="-387.39" font-family="Helvetica,sans-Serif" font-size="14.00">extract ethernet</text>
</g>
<!-- parse_ipv4 -->
<g id="node2" class="node">
<title>parse_ipv4</title>
<polygon fill="none" stroke="black" points="219,-309.59 119,-309.59 119,-271.59 219,-271.59 219,-309.59"/>
<text text-anchor="middle" x="169" y="-294.39" font-family="Helvetica,sans-Serif" font-size="14.00">parse_ipv4</text>
<text text-anchor="middle" x="169" y="-279.39" font-family="Helvetica,sans-Serif" font-size="14.00">extract ipv4</text>
</g>
<!-- parse_ethernet&#45;&gt;parse_ipv4 -->
<g id="edge1" class="edge">
<title>parse_ethernet&#45;&gt;parse_ipv4</title>
<path fill="none" stroke="black" d="M227.94,-390.17C209.66,-384.96 191.37,-376.21 179,-361.59 169.4,-350.24 166.64,-333.96 166.41,-319.96"/>
<polygon fill="black" stroke="black" points="169.91,-319.89 166.64,-309.81 162.91,-319.73 169.91,-319.89"/>
<text text-anchor="middle" x="286" y="-350.39" font-family="Times,serif" font-size="14.00">ethernet.ethertype == 0x800</text>
</g>
<!-- reject_0 -->
<g id="node5" class="node">
<title>reject_0</title>
<polygon fill="none" stroke="black" points="415,-328.59 237,-290.59 415,-252.59 593,-290.59 415,-328.59"/>
<text text-anchor="middle" x="415" y="-294.39" font-family="Helvetica,sans-Serif" font-size="14.00">reject:</text>
<text text-anchor="middle" x="415" y="-279.39" font-family="Helvetica,sans-Serif" font-size="14.00">unsupported ethertype</text>
</g>
<!-- parse_ethernet&#45;&gt;reject_0 -->
<g id="edge2" class="edge">
<title>parse_ethernet&#45;&gt;reject_0</title>
<path fill="none" stroke="black" stroke-dasharray="5,2" d="M356.24,-384.65C369.79,-379.39 382.99,-371.99 393,-361.59 399.49,-354.85 404.06,-346.22 407.29,-337.33"/>
<polygon fill="black" stroke="black" points="410.67,-338.26 410.29,-327.67 403.98,-336.18 410.67,-338.26"/>
<text text-anchor="middle" x="428.5" y="-350.39" font-family="Times,serif" font-size="14.00">default</text>
</g>
<!-- parse_tcp -->
<g id="node3" class="node">
<title>parse_tcp</title>
<polygon fill="none" stroke="black" points="92,-182.59 0,-182.59 0,-144.59 92,-144.59 92,-182.59"/>
<text text-anchor="middle" x="46" y="-167.39" font-family="Helvetica,sans-Serif" font-size="14.00">parse_tcp</text>
<text text-anchor="middle" x="46" y="-152.39" font-family="Helvetica,sans-Serif" font-size="14.00">extract tcp</text>
</g>
<!-- parse_ipv4&#45;&gt;parse_tcp -->
<g id="edge3" class="edge">
<title>parse_ipv4&#45;&gt;parse_tcp</title>
<path fill="none" stroke="black" d="M151.11,-271.42C130.07,-250.03 94.99,-214.38 71.2,-190.21"/>
<polygon fill="black" stroke="black" points="73.42,-187.46 63.91,-182.79 68.43,-192.37 73.42,-187.46"/>
<text text-anchor="middle" x="192" y="-223.39" font-family="Times,serif" font-size="14.00">ipv4.protocol == 0x6</text>
</g>
<!-- reject_1 -->
<g id="node6" class="node">
<title>reject_1</title>
<polygon fill="none" stroke="black" points="293,-201.59 110,-163.59 293,-125.59 476,-163.59 293,-201.59"/>
<text text-anchor="middle" x="293" y="-167.39" font-family="Helvetica,sans-Serif" font-size="14.00">reject:</text>
<text text-anchor="middle" x="293" y="-152.39" font-family="Helvetica,sans-Serif" font-size="14.00">unsupported ip protocol</text>
</g>
<!-- parse_ipv4&#45;&gt;reject_1 -->
<g id="edge4" class="edge">
<title>parse_ipv4&#45;&gt;reject_1</title>
<path fill="none" stroke="black" stroke-dasharray="5,2" d="M195.77,-271.51C205.69,-265.16 217.16,-258.21 228,-252.59 246.39,-243.06 257.04,-249.9 271,-234.59 277.24,-227.75 281.71,-219.15 284.91,-210.34"/>
<polygon fill="black" stroke="black" points="288.26,-211.36 287.91,-200.77 281.58,-209.26 288.26,-211.36"/>
<text text-anchor="middle" x="306.5" y="-223.39" font-family="Times,serif" font-size="14.00">default</text>
</g>
<!-- accept -->
<g id="node4" class="node">
<title>accept</title>
<ellipse fill="none" stroke="black" cx="46" cy="-44.3" rx="40.11" ry="40.11"/>
<ellipse fill="none" stroke="black" cx="46" cy="-44.3" rx="44.09" ry="44.09"/>
<text text-anchor="middle" x="46" y="-40.6" font-family="Helvetica,sans-Serif" font-size="14.00">accept</text>
</g>
<!-- parse_tcp&#45;&gt;accept -->
<g id="edge5" class="edge">
<title>parse_tcp&#45;&gt;accept</title>
<path fill="none" stroke="black" d="M46,-144.52C46,-132.23 46,-115.27 46,-98.85"/>
<polygon fill="black" stroke="black" points="49.5,-98.74 46,-88.74 42.5,-98.74 49.5,-98.74"/>
</g>
</g>
</svg>
